<?xml version="1.0" encoding="UTF-8"?>
<svg width="614px" height="613px" viewBox="0 0 614 613" version="1.1" xmlns="http://www.w3.org/2000/svg" xmlns:xlink="http://www.w3.org/1999/xlink">
    <!-- Generator: Sketch 62 (91390) - https://sketch.com -->
    <title>Group 2</title>
    <desc>Created with Sketch.</desc>
    <g id="Page-1" stroke="none" stroke-width="1" fill="none" fill-rule="evenodd">
        <g id="Group-2" fill-rule="nonzero">
            <g id="aumyr-world" transform="translate(83.000000, 82.000000)">
                <polygon id="Path" fill-opacity="0" fill="#9A8F8F" points="0 0 449 0 449 449 0 449"></polygon>
                <g id="Group" transform="translate(16.000000, 15.000000)" fill="#775200">
                    <path d="M206.473694,0.356004246 C92.7364756,0.356004246 0.383186837,92.7364756 0.383186837,206.473694 C0.383186837,320.208282 92.7373524,412.587877 206.471064,412.587877 C320.205652,412.587877 412.587877,320.208282 412.587877,206.473694 C412.587877,92.7364756 320.206529,0.356004246 206.473694,0.356004246 Z M306.789728,45.3773885 C360.493758,78.864586 396.202913,138.44707 396.202913,206.473694 C396.202913,221.505667 394.455335,236.131654 391.160981,250.149979 L361.128603,234.313928 L380.419473,282.43062 C372.12966,301.41196 360.81118,318.76059 347.098879,333.890771 L309.255452,306.764299 L252.58852,348.607951 L198.524979,354.717019 L186.331395,318.081902 L142.734028,341.620272 L83.0261529,325.01434 L91.0555393,357.102072 C66.1440106,337.992711 46.1341168,312.850569 33.1829278,283.829208 L55.4612527,252.070297 L83.7399151,267.085609 L135.667431,258.426639 L138.160338,222.556142 L105.414962,221.049701 L109.715949,205.403051 L136.705631,183.207151 L114.702639,169.506248 L173.645017,135.665677 L133.883902,109.660707 L75.4632548,144.898989 L32.1140382,131.500603 C44.2251975,103.318395 62.9881996,78.6962293 86.3967941,59.5421486 L83.1085775,98.4527113 L121.143159,68.5308174 L184.276917,88.0145966 L164.547618,63.9825563 L188.524416,51.3505435 L212.035603,76.3129299 L274.292503,84.9455945 L271.223501,54.7203079 L307.585038,65.8186964 L306.791482,45.3773885 L306.789728,45.3773885 Z M307.803376,150.626624 L227.983015,160.000234 L253.329465,197.896272 L256.096828,254.425537 L281.690552,266.564756 L291.720051,241.683917 L346.66045,284.348308 L331.259321,242.889597 L336.878225,200.498786 L298.515699,180.576577 L307.804253,150.626624 L307.803376,150.626624 Z M178.002123,153.83417 L150.298679,172.413032 L182.277682,185.372989 L196.90893,172.413032 L178.002123,153.833293 L178.002123,153.83417 Z M197.457843,280.704964 L213.843684,326.82242 L231.18793,289.499847 L197.457843,280.704964 Z" id="Shape"></path>
                </g>
            </g>
            <g id="logo-aumyr-world" fill="#775200">
                <path d="M613.9,305.1 C598.4,310.6 582.3,313.3 566.4,317 C560.5,318.4 554.6,319.7 548.8,321.5 C544.9,322.8 540.7,321.4 536.7,323.4 C534.9,324.3 533.4,321.1 533.5,318.5 C533.9,308.5 534.4,298.6 533.3,288.6 C532.8,284.1 535.2,283.1 539.6,283.6 C546.6,284.4 553.2,286.1 559.9,287.8 C568.4,290 577,291.9 585.6,293.9 C591.5,295.3 597.6,296.3 603.2,298.6 C606.8,300.1 612,299.2 613.9,304.1 C613.9,304.5 613.9,304.8 613.9,305.1 Z" id="Path"></path>
                <path d="M302.4,612 C300.8,609.1 301,605.4 300,602.8 C298.5,599.2 297.8,595.5 296.5,591.9 C293.6,584.2 291.5,576.1 290.8,568 C290.3,562.2 286.8,557.6 286.2,552.1 C285.9,549.4 284.6,546.9 285.7,544.1 C286,543.4 286,542.4 285.7,541.9 C284.5,540.1 282.3,537.7 283.6,536.4 C285.3,534.8 288.4,534.5 291,534.1 C298.5,532.9 306.1,532.9 313.8,533.5 C316.7,533.7 319.7,532.4 322.4,535 C323.4,535.9 324.2,536.5 323.8,537.9 C322.2,542.3 322.1,547 320.5,551.5 C318.1,558.3 317.2,565.6 315.8,572.7 C313.4,584.7 310.2,596.6 307,608.4 C306.5,610.4 303.3,609.6 303.5,612.1 C303,612 302.7,612 302.4,612 Z" id="Path"></path>
                <path d="M302.5,0.4 C303.9,2.2 302.9,4 303.7,5.7 C305.4,3.9 306.7,2.9 307.5,6.4 C309.1,13.2 311.5,19.7 312.2,26.7 C312.6,31 314.4,35.1 315.6,39.4 C315.6,39.5 315.8,39.7 315.8,39.8 C316.6,50.7 322,60.5 323.2,71.3 C323.9,77.8 321.5,80.8 315.2,80.7 C305.9,80.5 296.7,80.1 287.4,80.1 C282.9,80.1 282.2,77.5 283,74.1 C286.1,61.7 287.3,48.7 292.9,37.1 C294.2,34.5 292.7,31.9 293.7,29.5 C296.3,23.6 296,16.9 299.2,11.1 C300.2,9.4 300.3,7.3 300.3,5.3 C300.4,3.6 300.4,1.7 302.5,0.4 Z" id="Path"></path>
                <path d="M79.9,303.2 C79.5,308.2 79.1,313.2 78.8,318.2 C78.6,320.6 77.4,321.4 75,321.8 C69.1,322.9 63.5,322 57.9,320.4 C40.9,315.4 23.5,311.7 6.3,307.4 C5.1,307.1 3.9,306.8 2.8,306.4 C1.3,305.9 0.1,305.4 0.2,303.3 C0.2,301.2 1.3,300.3 3,299.7 C8.5,297.9 14.2,296.9 19.8,295.6 C31.9,292.9 43.8,289.4 56,287.4 C62.1,286.4 68,283.2 74.6,284.4 C77.2,284.9 78.4,285.9 78.6,288.4 C78.8,293.5 80.1,298.3 79.9,303.2 Z" id="Path"></path>
                <path d="M520.8,226.2 C520.7,221.3 525.3,220.3 528,219.5 C535.8,217.1 544,215.9 552,214.4 C553.1,214.2 554.7,213.8 555.2,215.3 C555.7,216.8 555.4,218.3 554.4,219.6 C552.5,221.9 550.1,223.4 547.7,225.1 C542.5,228.8 537.5,232.6 532.2,236.1 C528.1,238.9 525.7,237.9 524.1,233.3 C523.7,232.1 522.7,231 521.9,229.9 C521.1,228.8 520,227.7 520.8,226.2 Z" id="Path"></path>
                <path d="M226.5,519.2 C228.6,521.6 232.3,520.3 235.2,521.5 C239.5,523.3 240.4,525.8 237.7,529.6 C233.9,534.8 229.8,539.9 225.8,545 C224.6,546.6 223.4,548.1 222.1,549.6 C221,550.9 220.2,552.8 218,552.8 C218,550.5 214.9,549.4 215.5,546.9 C216.2,543.7 216.3,540.4 217.9,537.2 C219.5,534.1 220.7,530.6 220,526.7 C219.3,522.7 222.4,519.1 226.5,519.2 Z" id="Path"></path>
                <path d="M393.8,67.7 C393.5,75.1 391,82.1 389.4,89.2 C388.8,91.8 383.6,94.3 381.3,93 C378.8,91.7 376.2,91.2 373.7,90.1 C370.9,88.9 369.9,86.4 371.7,84.2 C377.1,77.6 380.1,69.2 387.1,63.9 C388.3,63 389.3,60.6 391.1,61.9 C392.7,63.2 394.3,65.1 393.8,67.7 Z" id="Path"></path>
                <path d="M387.7,543.4 C390.1,544.2 392,544.5 393.2,546.2 C394.2,547.6 394.6,549.1 393.3,550.3 C392.1,551.4 390.4,551.7 389.1,550.4 C382.4,543.8 376.4,536.4 371.7,528.2 C370.4,525.8 372.6,523.6 374.8,522.5 C376.7,521.5 378.8,521 380.8,520.2 C385,518.4 388.9,519.8 389.4,524.2 C390,528.7 391.9,532.9 392.5,537.4 C393.1,541.1 394.2,544.5 387.7,543.4 Z" id="Path"></path>
                <path d="M528.5,372.5 C531.7,374.1 535.1,375.4 538.1,377.2 C542.3,379.8 545.9,383.4 549.5,386.9 C551.4,388.7 550.6,391.3 550.4,393.1 C550.2,394.9 547.6,393.7 546,393.4 C538.6,392 531.1,391.2 524,388.3 C520,386.6 517.4,384.9 520.9,380.4 C521.6,379.5 521.8,378.2 522.3,377.1 C523.5,374.6 524.2,371.4 528.5,372.5 Z" id="Path"></path>
                <path d="M67.6,213.1 C73.2,214.9 79.4,214.3 84.8,216.5 C87.7,217.7 92,219 92.5,222.7 C93.1,226.7 90.8,230 88,233.3 C85,236.9 83.1,235.5 80.9,233.4 C77.3,230 72.3,228.4 69.8,223.6 C69.2,222.4 67.1,221.9 65.6,221.1 C63.4,220 62.1,218.6 62.8,215.7 C63.5,212.9 65.2,212.8 67.6,213.1 Z" id="Path"></path>
                <path d="M227.3,93 C223.3,92.3 221,91.8 220.8,87.4 C220.6,83.2 218.4,79.1 217.4,74.9 C216.4,70.8 213.8,66.7 218,62.7 C219.7,61.1 220.6,61.2 222.1,62.7 C227.9,68.3 231.7,75.4 236.2,82 C237.5,83.9 236,86.1 236,88.3 C236,91.4 233.4,91.2 231.3,90.8 C229.1,90.4 229.3,95.3 227.3,93 Z" id="Path"></path>
                <path d="M67.2,389.8 C65.6,389.3 63,391.3 62.6,387.9 C62.3,385.2 63.6,384 66,383.5 C66.8,383.3 67.3,383 67.6,382.2 C69.6,376.9 74.8,375.1 79.1,372.5 C80.3,371.8 81.5,371.6 82.6,370.3 C84.3,368.3 86.9,368.5 88.9,370.6 C89.2,370.9 89.3,371.4 89.6,371.8 C95.9,383 93.8,386.9 80.9,387.8 C76.3,388.1 72.1,391 67.2,389.8 Z" id="Path"></path>
            </g>
        </g>
    </g>
</svg>