<?xml version="1.0"?>
<svg xmlns="http://www.w3.org/2000/svg" id="_x33_0" enable-background="new 0 0 64 64" height="512px" viewBox="0 0 64 64" width="512px" class=""><g><g><path d="m13 13c2.206 0 4-1.794 4-4s-1.794-4-4-4-4 1.794-4 4 1.794 4 4 4zm0-6c1.103 0 2 .897 2 2s-.897 2-2 2-2-.897-2-2 .897-2 2-2z" data-original="#000000" class="active-path" data-old_color="#000000" fill="#FFFFFF"/><path d="m63 37.36v-6.612l-7.385-13.753c-.863-2.328-3.099-3.995-5.723-3.995h-20.33c-1.379 0-2.576.935-2.911 2.272l-.193.771-2.165-2.165c-.566-.565-1.32-.878-2.122-.878h-2.016c.547-1.257.845-2.631.845-4 0-4.411-3.589-8-8-8s-8 3.589-8 8c0 1.369.298 2.743.845 4h-1.845c-1.654 0-3 1.346-3 3v14.172c0 .801.312 1.555.879 2.121l1.707 1.707-1.707 1.707c-.567.566-.879 1.32-.879 2.121v16.73c0 1.293.824 2.437 2.051 2.846l16.323 5.441c.306.103.626.155.951.155h39.675c1.654 0 3-1.346 3-3v-14.172c0-.801-.312-1.555-.879-2.121l-3.093-3.093 1.56-.313c1.397-.278 2.412-1.515 2.412-2.941zm-7.389-16.146 4.017 7.482-7.551-3.776.958-.574c1.204-.724 2.099-1.845 2.576-3.132zm-42.611-18.214c3.309 0 6 2.691 6 6 0 1.163-.26 2.335-.752 3.39l-5.248 11.246-5.248-11.246c-.492-1.055-.752-2.227-.752-3.39 0-3.309 2.691-6 6-6zm0 46.948c0 1.337-.906 2.497-2.203 2.822l-.417.104-3.142-3.928.434-.651c.54-.811 1.445-1.295 2.42-1.295 1.603 0 2.908 1.305 2.908 2.948zm-1.718 4.762c1.365-.342 2.473-1.232 3.114-2.41l3.721 8.019-12.545-4.182zm43.69-15.324 5.735 5.735c.186.187.293.444.293.707v14.172c0 .552-.449 1-1 1h-39.362l-5.977-12.881-.009.004c-.717-1.824-2.485-3.123-4.56-3.123-1.645 0-3.172.817-4.084 2.186l-1.246 1.868 3.483 4.354-5.221 1.305c-.008-.051-.024-.101-.024-.154v-16.73c0-.263.107-.521.293-.707l3.121-3.122-3.121-3.121c-.186-.187-.293-.444-.293-.707v-14.172c0-.552.449-1 1-1h2.763l6.237 13.364 6.237-13.364h2.934c.267 0 .519.104.708.293l4.663 4.663 1.049-4.198c.112-.446.511-.758.971-.758h20.331c2.264 0 4.107 1.843 4.107 4.108 0 1.434-.764 2.784-1.995 3.522l-4.082 2.449 13.077 6.539v5.742c0 .476-.338.888-.804.98z" data-original="#000000" class="active-path" data-old_color="#000000" fill="#FFFFFF"/><path d="m47.101 51h-1.101c-1.654 0-3-1.346-3-3v-21c0-3.309-2.691-6-6-6s-6 2.691-6 6v17c0 1.654-1.346 3-3 3s-3-1.346-3-3v-14c0-2.757-2.243-5-5-5h-4v2h4c1.654 0 3 1.346 3 3v14c0 2.757 2.243 5 5 5s5-2.243 5-5v-17c0-2.206 1.794-4 4-4s4 1.794 4 4v21c0 2.757 2.243 5 5 5h1.101c.465 2.279 2.484 4 4.899 4 2.757 0 5-2.243 5-5s-2.243-5-5-5c-2.414 0-4.434 1.721-4.899 4zm7.899 1c0 1.654-1.346 3-3 3s-3-1.346-3-3 1.346-3 3-3 3 1.346 3 3z" data-original="#000000" class="active-path" data-old_color="#000000" fill="#FFFFFF"/></g></g> </svg>
